<?xml version="1.0" encoding="utf-8"?>
<!-- Generator: Adobe Illustrator 26.0.3, SVG Export Plug-In . SVG Version: 6.00 Build 0)  -->
<svg version="1.1" xmlns="http://www.w3.org/2000/svg" xmlns:xlink="http://www.w3.org/1999/xlink" x="0px" y="0px"
	 viewBox="0 0 250 250" style="enable-background:new 0 0 250 250;" xml:space="preserve">
<style type="text/css">
	.st0{display:none;}
	.st1{display:inline;fill:url(#SVGID_1_);}
	.st2{display:inline;opacity:0.1;}
	.st3{display:inline;opacity:0.2;fill:#FFFFFF;}
	.st4{fill:#FFFFFF;}
	.st5{fill:#292929;}
	.st6{fill:#266FFF;}
	.st7{fill:#08C5E7;}
	.st8{fill:#B14DFF;}
	.st9{fill:#FF61A8;}
	.st10{fill:#00BEDD;}
	.st11{fill-rule:evenodd;clip-rule:evenodd;fill:#292929;}
	.st12{fill:#E1E1E1;}
	.st13{fill:#5C5C5C;}
	.st14{fill-rule:evenodd;clip-rule:evenodd;fill:#FFFFFF;}
</style>
<g id="Background">
</g>
<g id="Items">
	<path class="st6" d="M126.1,46.3c-10,4.1-18.3,10.7-24.4,18.7l102.1,13.4C191.2,48.2,156.4,33.7,126.1,46.3z"/>
	<path class="st6" d="M171.6,156.2c30.3-12.6,44.7-47.4,32.2-77.7l-62.7,81.7C151.1,161.5,161.6,160.3,171.6,156.2z"/>
	<path class="st5" d="M104.2,208.2l36.8-48c-20.4-2.7-38.7-15.9-47.2-36.2s-4.7-42.7,7.8-59l-60-7.9L104.2,208.2z"/>
	<path class="st7" d="M93.9,124c8.4,20.3,26.8,33.5,47.2,36.2l62.7-81.7L101.7,65.1C89.2,81.4,85.5,103.7,93.9,124z"/>
</g>
</svg>
